<?xml version="1.0" standalone="no"?>
<!DOCTYPE svg PUBLIC "-//W3C//DTD SVG 20010904//EN"
 "http://www.w3.org/TR/2001/REC-SVG-20010904/DTD/svg10.dtd">
<svg version="1.0" xmlns="http://www.w3.org/2000/svg"
 width="960.000000pt" height="1280.000000pt" viewBox="0 0 960.000000 1280.000000"
 preserveAspectRatio="xMidYMid meet">
<metadata>
Created by potrace 1.15, written by Peter Selinger 2001-2017
</metadata>
<g transform="translate(0.000000,1280.000000) scale(0.100000,-0.100000)"
fill="#000000" stroke="none">
<path d="M4697 11550 c-74 -14 -112 -86 -104 -194 9 -117 59 -201 145 -242 64
-30 119 -8 164 65 30 47 29 145 -1 219 -21 53 -29 66 -66 103 -18 18 -89 61
-97 58 -2 -1 -20 -5 -41 -9z"/>
<path d="M5103 11363 c-31 -6 -91 -79 -104 -127 -32 -119 43 -283 138 -302 41
-8 65 0 98 34 34 33 44 60 56 140 7 52 6 72 -10 116 -10 29 -31 67 -46 84 -26
29 -83 64 -102 61 -4 -1 -18 -4 -30 -6z"/>
<path d="M4304 11343 c-12 -2 -34 -18 -50 -34 -26 -27 -29 -37 -29 -92 1 -75
29 -141 88 -199 118 -117 263 -104 288 27 28 147 -152 328 -297 298z"/>
<path d="M4819 10909 c-59 -22 -132 -91 -163 -153 -69 -139 -53 -412 29 -483
29 -26 83 -38 122 -28 14 3 66 46 114 94 111 112 138 128 257 147 130 20 134
22 166 49 37 32 51 92 31 132 -32 65 -104 121 -260 205 -89 47 -223 64 -296
37z"/>
<path d="M4243 10869 c-45 -19 -57 -35 -67 -90 -11 -64 46 -161 125 -211 66
-42 169 -46 217 -10 36 27 45 116 18 164 -36 63 -60 88 -110 119 -66 41 -130
51 -183 28z"/>
<path d="M2817 10490 c-80 -15 -117 -126 -86 -260 20 -88 93 -168 166 -184 43
-10 97 16 123 59 35 57 40 116 17 198 -12 40 -25 77 -29 82 -45 58 -66 79
-101 95 -22 11 -43 19 -46 19 -3 -1 -23 -5 -44 -9z"/>
<path d="M3220 10299 c-52 -21 -91 -85 -97 -161 -14 -151 91 -291 192 -258
131 43 138 310 11 402 -41 29 -65 33 -106 17z"/>
<path d="M2433 10283 c-35 -7 -83 -63 -84 -97 -3 -47 2 -100 10 -106 3 -3 15
-22 25 -43 43 -84 145 -157 220 -157 115 0 159 106 97 235 -55 114 -172 188
-268 168z"/>
<path d="M2932 9849 c-58 -27 -96 -62 -133 -122 -87 -141 -72 -461 24 -521 34
-21 93 -29 119 -15 13 7 66 54 118 104 90 87 163 134 207 134 60 -1 139 13
172 31 142 72 69 220 -164 335 -16 9 -37 19 -45 24 -31 19 -157 49 -205 50
-31 0 -67 -7 -93 -20z"/>
<path d="M2382 9816 c-104 -36 -107 -158 -6 -259 60 -60 105 -80 181 -81 80
-1 110 24 119 100 7 57 -12 105 -64 161 -57 61 -168 100 -230 79z"/>
<path d="M5258 8409 c-21 -11 -38 -26 -38 -33 0 -7 -7 -19 -16 -27 -12 -10
-15 -26 -11 -73 8 -88 25 -132 75 -188 52 -57 110 -88 164 -88 90 0 133 56
126 164 -3 56 -9 73 -47 128 -44 65 -102 114 -146 123 -14 3 -35 7 -47 9 -13
3 -40 -4 -60 -15z"/>
<path d="M5685 8324 c-34 -37 -48 -88 -42 -154 6 -69 36 -132 90 -185 37 -38
42 -40 103 -40 70 0 78 6 113 80 34 72 3 190 -71 267 -59 62 -151 77 -193 32z"/>
<path d="M5030 8115 c-8 -2 -31 -6 -51 -10 -50 -8 -76 -33 -88 -84 -8 -35 -6
-51 10 -90 21 -47 94 -131 115 -131 6 0 17 -6 23 -14 7 -8 43 -20 81 -27 89
-16 145 2 174 55 34 64 -2 170 -81 235 -29 24 -151 76 -165 70 -2 -1 -10 -3
-18 -4z"/>
<path d="M5652 7869 c-84 -16 -141 -67 -190 -167 -51 -106 -32 -267 50 -422
16 -30 36 -63 45 -73 29 -31 80 -50 118 -43 38 7 92 48 106 80 5 12 13 29 19
39 5 9 15 25 20 35 6 9 15 28 21 42 29 69 110 136 209 173 65 25 120 75 129
117 7 35 -13 110 -30 110 -4 0 -14 6 -21 13 -22 20 -78 45 -177 77 -99 32
-202 38 -299 19z"/>
<path d="M5053 7649 c-65 -19 -100 -94 -74 -161 16 -41 73 -92 143 -126 51
-25 124 -26 181 -3 16 6 32 11 37 11 5 0 12 9 15 20 3 11 11 20 16 20 5 0 9
20 9 44 0 131 -179 238 -327 195z"/>
<path d="M3394 7354 c-46 -23 -77 -91 -69 -151 15 -101 81 -198 167 -243 33
-17 51 -20 87 -15 63 9 78 19 101 65 37 72 2 197 -75 275 -70 69 -154 97 -211
69z"/>
<path d="M3816 7263 c-30 -32 -51 -118 -41 -166 12 -57 52 -131 94 -171 37
-36 44 -39 100 -40 66 -1 73 4 111 76 18 34 19 45 10 103 -14 86 -22 107 -67
156 -67 74 -160 93 -207 42z"/>
<path d="M3079 7032 c-47 -23 -59 -44 -59 -105 0 -51 99 -187 136 -187 6 0 17
-6 23 -14 7 -8 43 -20 80 -26 85 -14 139 3 172 57 20 32 21 40 10 87 -6 28
-23 64 -36 80 -14 16 -25 32 -25 35 0 11 -95 70 -125 77 -16 4 -34 10 -40 13
-22 13 -93 5 -136 -17z"/>
<path d="M3820 6822 c-99 -13 -181 -78 -226 -180 -23 -51 -25 -66 -21 -147 5
-96 28 -179 79 -276 31 -60 45 -76 93 -103 26 -15 38 -16 72 -7 55 15 82 45
133 146 45 90 112 175 136 175 8 0 14 4 14 8 0 4 29 19 65 33 36 13 84 40 107
60 38 32 42 39 42 85 1 43 -3 55 -29 80 -39 39 -96 68 -165 84 -30 7 -61 17
-68 23 -7 5 -52 12 -100 14 -48 2 -91 5 -97 6 -5 2 -21 1 -35 -1z"/>
<path d="M7851 6589 c-76 -63 -85 -212 -18 -322 29 -47 111 -107 148 -107 62
0 92 22 130 94 20 37 20 44 9 119 -11 65 -20 91 -54 141 -25 38 -54 67 -76 78
-48 23 -109 22 -139 -3z"/>
<path d="M3195 6593 c-37 -9 -82 -51 -88 -82 -16 -77 36 -147 149 -202 54 -27
68 -30 110 -23 115 16 160 58 148 134 -9 53 -77 139 -111 140 -7 0 -13 4 -13
9 0 20 -139 37 -195 24z"/>
<path d="M8285 6408 c-64 -35 -103 -131 -90 -223 8 -64 57 -156 94 -178 56
-33 122 -16 169 43 25 32 45 128 36 177 -24 134 -129 225 -209 181z"/>
<path d="M7483 6386 c-38 -18 -50 -38 -59 -103 -17 -134 143 -304 271 -286 82
11 124 78 105 168 -32 156 -201 274 -317 221z"/>
<path d="M8036 5973 c-60 -15 -156 -101 -183 -163 -3 -8 -14 -34 -24 -57 -38
-85 -13 -338 39 -407 29 -37 48 -46 102 -46 44 0 87 26 142 86 98 107 145 138
239 154 36 6 69 10 74 9 6 -1 24 1 40 6 80 21 131 80 120 139 -12 62 -105 150
-220 206 -27 14 -52 28 -55 32 -3 3 -27 12 -53 18 -26 7 -50 16 -53 21 -5 9
-134 10 -168 2z"/>
<path d="M7434 5925 c-86 -45 -81 -152 13 -256 19 -21 40 -39 46 -39 6 0 18
-7 26 -15 21 -18 118 -33 155 -24 103 28 107 160 8 262 -71 73 -182 106 -248
72z"/>
<path d="M6000 5541 c-12 -8 -33 -33 -47 -54 -71 -113 17 -342 145 -376 69
-19 113 8 151 93 19 41 20 53 11 112 -16 101 -77 200 -139 227 -36 16 -96 15
-121 -2z"/>
<path d="M6435 5361 c-45 -19 -82 -71 -95 -133 -14 -75 -6 -127 31 -198 32
-60 54 -79 108 -91 141 -32 211 235 96 369 -44 52 -95 71 -140 53z"/>
<path d="M5643 5342 c-76 -24 -103 -117 -62 -213 26 -62 95 -136 157 -167 48
-25 117 -24 156 2 58 37 67 124 24 210 -22 43 -105 136 -121 136 -6 0 -18 6
-26 14 -19 17 -97 28 -128 18z"/>
<path d="M6152 4911 c-58 -23 -122 -85 -151 -146 -13 -27 -28 -59 -34 -69 -14
-29 -18 -172 -6 -246 22 -141 46 -183 118 -199 68 -15 114 11 201 114 65 78
154 123 256 129 81 6 123 22 162 63 34 37 36 43 26 91 -9 46 -147 182 -185
182 -7 0 -20 6 -28 13 -9 7 -41 23 -71 36 -30 13 -70 29 -88 37 -45 19 -148
17 -200 -5z"/>
<path d="M5582 4873 c-51 -25 -76 -66 -68 -115 7 -42 30 -93 52 -115 7 -7 21
-23 31 -35 21 -27 94 -63 144 -72 117 -20 187 69 139 177 -54 121 -209 205
-298 160z"/>
<path d="M8502 3827 c-12 -7 -32 -30 -43 -51 -18 -35 -19 -45 -9 -108 12 -82
35 -129 86 -181 72 -73 173 -91 225 -41 32 31 54 109 45 159 -18 95 -111 216
-177 229 -49 9 -102 7 -127 -7z"/>
<path d="M8932 3719 c-44 -45 -60 -135 -37 -204 50 -148 163 -224 246 -164 38
27 48 46 58 120 7 54 5 70 -16 124 -52 135 -179 198 -251 124z"/>
<path d="M8189 3543 c-47 -23 -63 -50 -63 -107 2 -80 67 -172 158 -219 57 -31
181 -32 212 -2 53 51 58 115 14 191 -35 62 -76 98 -148 130 -59 26 -128 29
-173 7z"/>
<path d="M8890 3273 c-68 -12 -100 -26 -136 -60 -95 -90 -126 -195 -103 -346
6 -38 17 -81 25 -95 8 -15 14 -33 14 -40 0 -16 46 -100 67 -124 8 -9 29 -24
47 -32 68 -32 149 22 213 143 18 33 43 72 55 87 31 36 99 81 134 90 59 14 150
64 173 95 41 56 17 129 -59 180 -104 69 -321 121 -430 102z"/>
<path d="M8273 3089 c-57 -11 -82 -36 -89 -90 -18 -133 170 -261 314 -213 59
20 69 29 80 79 18 81 -35 157 -149 213 -48 23 -84 26 -156 11z"/>
<path d="M6660 2783 c-39 -17 -71 -75 -69 -126 4 -116 73 -230 169 -280 41
-21 117 -15 148 12 22 18 42 79 42 127 0 84 -64 200 -136 245 -34 21 -126 34
-154 22z"/>
<path d="M7123 2690 c-44 -10 -70 -44 -84 -110 -37 -175 130 -360 251 -278 61
42 75 159 30 260 -23 53 -65 99 -112 122 -34 17 -37 18 -85 6z"/>
<path d="M6370 2499 c-31 -6 -54 -18 -74 -40 -26 -30 -28 -36 -22 -87 14 -116
113 -209 247 -232 58 -10 71 -9 98 5 70 36 86 111 41 196 -23 46 -105 128
-127 129 -4 1 -26 9 -48 20 -44 21 -50 22 -115 9z"/>
<path d="M7017 2219 c-27 -6 -66 -21 -87 -34 -43 -27 -110 -109 -110 -134 0
-9 -7 -29 -15 -45 -44 -83 16 -352 99 -444 58 -65 126 -61 195 10 23 23 41 45
41 49 0 4 16 35 36 69 45 74 108 132 166 150 56 18 139 56 158 72 35 30 52 69
45 105 -16 85 -137 155 -331 193 -114 22 -125 22 -197 9z"/>
<path d="M6440 2041 c-76 -16 -110 -52 -110 -116 0 -57 56 -135 120 -167 124
-62 260 -36 275 52 10 58 -1 93 -44 138 -68 71 -166 109 -241 93z"/>
</g>
</svg>
